<?xml version="1.0" encoding="utf-8"?>
<!-- Generator: Adobe Illustrator 24.0.1, SVG Export Plug-In . SVG Version: 6.00 Build 0)  -->
<svg version="1.1" xmlns="http://www.w3.org/2000/svg" xmlns:xlink="http://www.w3.org/1999/xlink" x="0px" y="0px"
	 viewBox="0 0 270 271" style="enable-background:new 0 0 270 271;" xml:space="preserve">
<style type="text/css">
	.st0{fill:none;stroke:#fff;stroke-width:10;}
	.st1{fill:#E42A45;}
	.st2{fill:#fff;}
	.st3{fill:none;stroke:#fff;stroke-width:10;stroke-linejoin:bevel;}
</style>
<g id="Layer_1">
	<g>
		<g>
			<path class="st3" d="M140.6,74.8L123,56.2c-20.3-21.6-53.1-21.6-73.4,0c-20.3,21.6-20.3,56.5,0,78.1l90.9,96.7l65.6-69.8"/>
			<g>
				<polygon class="st2" points="205.1,182.1 204.5,162.9 185.3,163.5 193.2,155.2 212.4,154.6 213,173.7 				"/>
			</g>
		</g>
		<path class="st1" d="M221.2,131c-7.6,0.3-13.6,6.6-13.3,14c0.3,7.5,6.7,13.3,14.4,13c7.6-0.3,13.6-6.6,13.3-14
			C235.2,136.5,228.8,130.7,221.2,131z"/>
	</g>
</g>
<g id="Layer_2">
</g>
<g id="Layer_3">
</g>
</svg>
