<svg viewBox="0 0 177 52" fill="none" xmlns="http://www.w3.org/2000/svg">
  <path d="M7.24428 6.4612C7.35836 6.74335 7.47245 7.33587 7.47245 8.06945V15.1796C7.47245 15.9414 7.35836 16.4493 7.24428 16.7314L7.35836 16.8443C7.70061 16.675 8.12842 16.6186 8.86996 16.6186H14.3745C17.8255 16.6186 19.7934 14.7564 19.7934 11.6527C19.7934 8.66196 17.9111 6.57406 14.3745 6.57406H8.86996C8.0999 6.57406 7.70061 6.51763 7.35836 6.34834L7.24428 6.4612ZM27.5226 11.427C27.5226 17.8318 22.5029 22.3462 17.5973 22.3462C16.9413 22.3462 16.428 22.2897 15.9146 22.1205V22.3462C17.5403 22.7976 18.7667 23.7851 20.3068 25.6473L32.2855 40.4319H22.8737L9.29778 22.9951C9.01257 22.9951 8.72736 22.9951 8.41363 22.9387C7.84322 22.8823 7.52949 22.8258 7.24428 22.6565L7.1302 22.7694C7.35836 23.3337 7.47245 24.0955 7.47245 25.0266V40.4601H0V0H14.3745C22.5314 0 27.5226 4.20401 27.5226 11.427Z" [attr.fill]="color"/>
  <path d="M38.446 24.3779L38.5601 24.4907C39.0735 24.1522 40.2428 23.9829 41.4692 23.9829H47.8294C49.8258 23.9829 50.6814 24.0393 51.1663 24.4343L51.2804 24.3214C51.0522 20.6817 48.7135 18.6503 45.1484 18.6503C41.4978 18.6503 38.9309 20.7946 38.446 24.3779ZM58.5532 27.0301V28.6947H41.84C40.1002 28.6947 39.2161 28.5819 38.446 28.1304L38.3319 28.2997L38.5601 28.9487C39.2161 32.927 41.897 35.0713 46.1466 35.0713C49.2554 35.0713 51.8793 33.9709 54.161 31.883L57.4409 36.9617C54.218 39.8396 50.5959 41.3068 46.1752 41.3068C37.3052 41.3068 31.4584 35.8049 31.4584 27.1429C31.4584 18.4245 37.1341 12.8662 45.4051 12.8662C53.5906 12.8944 58.5532 18.1424 58.5532 27.0301Z" [attr.fill]="color"/>
  <path d="M69.3625 27.0861C69.3625 31.7134 72.5283 34.817 77.1202 34.817C81.6835 34.817 84.4785 31.8827 84.4785 27.0861C84.4785 22.2896 81.6265 19.3552 77.1202 19.3552C72.4998 19.3552 69.3625 22.4871 69.3625 27.0861ZM91.951 27.0861C91.951 35.5788 86.7602 41.3064 79.2307 41.3064C74.7244 41.3064 71.1023 39.1057 69.3055 34.8452L69.0773 34.9016C69.4196 36.5663 69.5907 38.3156 69.5907 40.3189V51.9999H62.5175V13.7405H69.5336C69.5336 15.9977 69.3625 17.8881 69.0203 19.2988L69.2484 19.3552C71.1878 15.377 74.3822 12.894 79.1737 12.894C86.6461 12.894 91.951 18.5934 91.951 27.0861Z" [attr.fill]="color"/>
  <path d="M103.103 13.7402H95.9724V40.4315H103.103V13.7402Z" [attr.fill]="color"/>
  <path d="M134.789 23.2775V40.4321H127.602V25.309C127.602 21.3307 125.72 19.2992 122.411 19.2992C118.333 19.2992 115.766 22.0078 115.766 27.6226V40.4604H108.636V13.7409H115.766C115.766 16.6752 115.595 18.0295 115.195 19.8071L115.424 19.9199C117.163 15.5748 120.215 12.8662 125.235 12.8662C131.338 12.8944 134.789 16.5341 134.789 23.2775Z" [attr.fill]="color"/>
  <path d="M145.912 31.7134C145.912 34.1963 147.852 35.8045 150.704 35.8045C153.67 35.8045 155.724 34.0834 155.724 31.6569C155.724 29.2305 153.67 27.5658 150.761 27.5658C147.852 27.5658 145.912 29.2869 145.912 31.7134ZM163.795 27.0861V40.4318H156.551C156.551 38.5131 156.779 37.187 157.435 35.6917L157.207 35.5788C155.21 39.3878 152.073 41.3064 147.909 41.3064C142.119 41.3064 138.269 37.5538 138.269 31.9391C138.269 26.2679 142.119 22.6846 148.023 22.6846C152.044 22.6846 155.21 24.2929 157.064 27.3118L157.292 27.199C156.95 26.155 156.836 24.7725 156.836 23.2771C156.665 20.5121 154.554 18.9885 150.875 18.9885C148.764 18.9885 146.483 19.2706 142.861 20.1453L141.463 14.2201C144.914 13.3455 148.536 12.894 151.617 12.894C160.144 12.894 163.766 16.0823 163.766 23.6439V27.0861H163.795Z" [attr.fill]="color"/>
  <path d="M103.473 4.85312C103.473 6.99745 101.705 8.74678 99.5375 8.74678C97.37 8.74678 95.6017 6.99745 95.6017 4.85312C95.6017 2.70879 97.37 0.959473 99.5375 0.959473C101.705 0.959473 103.473 2.70879 103.473 4.85312Z" [attr.fill]="color"/>
  <path d="M177 36.5377C177 38.682 175.232 40.4314 173.064 40.4314C170.897 40.4314 169.128 38.682 169.128 36.5377C169.128 34.3934 170.897 32.644 173.064 32.644C175.26 32.644 177 34.3934 177 36.5377Z" fill="#ED1846"/>
</svg>
