<?xml version="1.0" encoding="utf-8"?>
<!-- Generator: Adobe Illustrator 24.2.1, SVG Export Plug-In . SVG Version: 6.00 Build 0)  -->
<svg version="1.1" id="Layer_1" xmlns="http://www.w3.org/2000/svg" xmlns:xlink="http://www.w3.org/1999/xlink" x="0px" y="0px"
	 viewBox="0 0 192 112" style="enable-background:new 0 0 192 112;" xml:space="preserve">
<style type="text/css">
	.st0{fill:#C1C1C1;}
</style>
<g>
	<g>
		<path class="st0" d="M119.02,112H4.34c-2.4,0-4.34-1.94-4.34-4.34V4.34C0,1.94,1.94,0,4.34,0h114.67c2.4,0,4.34,1.94,4.34,4.34
			v103.32C123.36,110.06,121.41,112,119.02,112z"/>
		<path class="st0" d="M187.66,49.77h-46.14c-2.4,0-4.34-1.94-4.34-4.34V4.34c0-2.4,1.94-4.34,4.34-4.34h46.14
			c2.4,0,4.34,1.94,4.34,4.34v41.09C192,47.83,190.06,49.77,187.66,49.77z"/>
		<path class="st0" d="M187.66,112h-46.14c-2.4,0-4.34-1.94-4.34-4.34V66.57c0-2.4,1.94-4.34,4.34-4.34h46.14
			c2.4,0,4.34,1.94,4.34,4.34v41.09C192,110.06,190.06,112,187.66,112z"/>
	</g>
</g>
</svg>
