<?xml version="1.0" encoding="utf-8"?>
<!-- Generator: Adobe Illustrator 24.2.1, SVG Export Plug-In . SVG Version: 6.00 Build 0)  -->
<svg version="1.1" id="Layer_1" xmlns="http://www.w3.org/2000/svg" xmlns:xlink="http://www.w3.org/1999/xlink" x="0px" y="0px"
	 viewBox="0 0 192 112" style="enable-background:new 0 0 192 112;" xml:space="preserve">
<style type="text/css">
	.st0{fill:#C1C1C1;}
</style>
<g>
	<g>
		<path class="st0" d="M72.98,112h114.67c2.4,0,4.34-1.94,4.34-4.34V4.34c0-2.4-1.94-4.34-4.34-4.34L72.98,0
			c-2.4,0-4.34,1.94-4.34,4.34v103.32C68.64,110.06,70.59,112,72.98,112z"/>
		<path class="st0" d="M4.34,49.77h46.14c2.4,0,4.34-1.94,4.34-4.34V4.34c0-2.4-1.94-4.34-4.34-4.34L4.34,0C1.94,0,0,1.94,0,4.34
			l0,41.09C0,47.83,1.94,49.77,4.34,49.77z"/>
		<path class="st0" d="M4.34,112h46.14c2.4,0,4.34-1.94,4.34-4.34V66.57c0-2.4-1.94-4.34-4.34-4.34H4.34c-2.4,0-4.34,1.94-4.34,4.34
			l0,41.09C0,110.06,1.94,112,4.34,112z"/>
	</g>
</g>
</svg>
