<?xml version="1.0" encoding="utf-8"?>
<!-- Generator: Adobe Illustrator 24.2.1, SVG Export Plug-In . SVG Version: 6.00 Build 0)  -->
<svg version="1.1" id="Layer_1" xmlns="http://www.w3.org/2000/svg" xmlns:xlink="http://www.w3.org/1999/xlink" x="0px" y="0px"
	 viewBox="0 0 192 112" style="enable-background:new 0 0 192 112;" xml:space="preserve">
<style type="text/css">
	.st0{fill:#C1C1C1;}
</style>
<path class="st0" d="M0,107.66V4.34C0,1.94,1.94,0,4.34,0h80.4c2.4,0,4.34,1.94,4.34,4.34v103.32c0,2.4-1.94,4.34-4.34,4.34H4.34
	C1.94,112,0,110.06,0,107.66z"/>
<path class="st0" d="M102.92,107.66V4.34c0-2.4,1.94-4.34,4.34-4.34h80.4c2.4,0,4.34,1.94,4.34,4.34v103.32
	c0,2.4-1.94,4.34-4.34,4.34h-80.4C104.86,112,102.92,110.06,102.92,107.66z"/>
</svg>
