<svg width="192" height="137" viewBox="0 0 192 137" fill="none" xmlns="http://www.w3.org/2000/svg">
<path d="M30.72 0L15.36 15.3795L0 0V13.0404L15.36 28.4199L30.72 13.0404V0Z" fill="white"/>
<path d="M15.36 59.1399C23.8431 59.1399 30.72 52.263 30.72 43.7799C30.72 35.2968 23.8431 28.4199 15.36 28.4199C6.87691 28.4199 0 35.2968 0 43.7799C0 52.263 6.87691 59.1399 15.36 59.1399Z" fill="#E32C46"/>
<path d="M84.48 0L69.12 15.3795L53.76 0V13.0404L69.12 28.4199L84.48 13.0404V0Z" fill="white"/>
<path d="M69.12 59.1399C77.6031 59.1399 84.48 52.263 84.48 43.7799C84.48 35.2968 77.6031 28.4199 69.12 28.4199C60.6369 28.4199 53.76 35.2968 53.76 43.7799C53.76 52.263 60.6369 59.1399 69.12 59.1399Z" fill="#E32C46"/>
<path d="M138.24 0L122.88 15.3795L107.52 0V13.0404L122.88 28.4199L138.24 13.0404V0Z" fill="white"/>
<path d="M122.88 59.1399C131.363 59.1399 138.24 52.263 138.24 43.7799C138.24 35.2968 131.363 28.4199 122.88 28.4199C114.397 28.4199 107.52 35.2968 107.52 43.7799C107.52 52.263 114.397 59.1399 122.88 59.1399Z" fill="#E32C46"/>
<path d="M192 0L176.64 15.3795L161.28 0V13.0404L176.64 28.4199L192 13.0404V0Z" fill="white"/>
<path d="M176.64 59.1399C185.123 59.1399 192 52.263 192 43.7799C192 35.2968 185.123 28.4199 176.64 28.4199C168.157 28.4199 161.28 35.2968 161.28 43.7799C161.28 52.263 168.157 59.1399 176.64 59.1399Z" fill="#E32C46"/>
<path d="M30.72 77.4402L15.36 92.8197L0 77.4402V90.4806L15.36 105.86L30.72 90.4806V77.4402Z" fill="white"/>
<path d="M15.36 136.58C23.8431 136.58 30.72 129.703 30.72 121.22C30.72 112.737 23.8431 105.86 15.36 105.86C6.87691 105.86 0 112.737 0 121.22C0 129.703 6.87691 136.58 15.36 136.58Z" fill="#E32C46"/>
<path d="M84.48 77.4399L69.12 92.8194L53.76 77.4399V90.4803L69.12 105.86L84.48 90.4803V77.4399Z" fill="white"/>
<path d="M69.12 136.58C77.6031 136.58 84.48 129.703 84.48 121.22C84.48 112.737 77.6031 105.86 69.12 105.86C60.6369 105.86 53.76 112.737 53.76 121.22C53.76 129.703 60.6369 136.58 69.12 136.58Z" fill="#E32C46"/>
<path d="M138.24 77.4399L122.88 92.8194L107.52 77.4399V90.4803L122.88 105.86L138.24 90.4803V77.4399Z" fill="white"/>
<path d="M122.88 136.58C131.363 136.58 138.24 129.703 138.24 121.22C138.24 112.737 131.363 105.86 122.88 105.86C114.397 105.86 107.52 112.737 107.52 121.22C107.52 129.703 114.397 136.58 122.88 136.58Z" fill="#E32C46"/>
<path d="M192 77.4399L176.64 92.8194L161.28 77.4399V90.4803L176.64 105.86L192 90.4803V77.4399Z" fill="white"/>
<path d="M176.64 136.58C185.123 136.58 192 129.703 192 121.22C192 112.737 185.123 105.86 176.64 105.86C168.157 105.86 161.28 112.737 161.28 121.22C161.28 129.703 168.157 136.58 176.64 136.58Z" fill="#E32C46"/>
</svg>
