<svg width="448" height="88" viewBox="0 0 448 88" fill="none" xmlns="http://www.w3.org/2000/svg">
<path d="M332.973 87.6321L376.799 43.806L332.973 0H370.163L413.969 43.806L370.163 87.6321H332.973Z" fill="white"/>
<path d="M252.108 87.6321L295.934 43.806L252.108 0H289.298L333.104 43.806L289.298 87.6321H252.108Z" fill="white"/>
<path d="M166.486 87.6321L210.312 43.806L166.486 0H203.676L247.482 43.806L203.676 87.6321H166.486Z" fill="white"/>
<path d="M80.8649 87.6321L124.691 43.806L80.8649 0H118.055L161.861 43.806L118.055 87.6321H80.8649Z" fill="white"/>
<path d="M0 87.6321L43.826 43.806L0 0H37.19L80.996 43.806L37.19 87.6321H0Z" fill="white"/>
<path d="M458.578 88C482.878 88 502.578 68.3005 502.578 44C502.578 19.6995 482.878 0 458.578 0C434.277 0 414.578 19.6995 414.578 44C414.578 68.3005 434.277 88 458.578 88Z" fill="#E42A45"/>
</svg>
