<svg width="260" height="260" viewBox="0 0 260 260" fill="none" xmlns="http://www.w3.org/2000/svg">
<path d="M105.97 175.898H106.762L108.802 171.506C109.162 170.69 109.378 170.33 109.45 169.778H109.546C109.594 170.45 109.738 170.786 110.002 171.554L111.49 175.73H114.658L110.194 164.474H109.426L106.906 169.778C106.642 170.282 106.498 170.642 106.402 171.122H106.306C106.234 170.642 106.09 170.282 105.826 169.778L103.306 164.474H102.538L98.074 175.73H101.242L102.706 171.554C102.994 170.786 103.138 170.45 103.186 169.778H103.282C103.354 170.33 103.546 170.69 103.93 171.506L105.97 175.898ZM120.557 164.282C117.149 164.282 114.821 166.586 114.821 170.21C114.821 173.81 117.221 176.09 120.869 176.09C122.693 176.09 124.181 175.49 125.501 174.29L124.157 172.178C123.221 173.042 122.141 173.498 120.869 173.498C119.117 173.498 118.013 172.61 117.749 170.954L117.653 170.69L117.701 170.618C118.013 170.81 118.373 170.858 119.093 170.858H125.957V170.162C125.957 166.466 123.917 164.282 120.557 164.282ZM120.461 166.682C121.925 166.682 122.885 167.522 122.981 169.034L122.933 169.082C122.741 168.914 122.381 168.89 121.565 168.89H118.949C118.445 168.89 117.965 168.962 117.749 169.106L117.701 169.058C117.893 167.57 118.949 166.682 120.461 166.682ZM133.363 176.09C134.803 176.09 136.051 175.73 137.251 174.986L135.979 172.562C135.187 173.09 134.323 173.33 133.411 173.33C131.563 173.33 130.267 172.034 130.267 170.186C130.267 168.338 131.563 167.042 133.411 167.042C134.323 167.042 135.187 167.282 135.979 167.81L137.251 165.386C136.051 164.642 134.803 164.282 133.363 164.282C129.739 164.282 127.243 166.682 127.243 170.186C127.243 173.69 129.739 176.09 133.363 176.09ZM137.823 164.642V167.282H141.063C141.351 167.282 141.543 167.282 141.735 167.186L141.759 167.21C141.663 167.402 141.639 167.618 141.639 167.834V175.73H144.591V167.834C144.591 167.618 144.567 167.402 144.471 167.21L144.495 167.186C144.687 167.282 144.879 167.282 145.167 167.282H148.407V164.642H137.823ZM154.949 164.282C151.397 164.282 148.805 166.73 148.805 170.186C148.805 173.642 151.397 176.09 154.949 176.09C158.501 176.09 161.093 173.642 161.093 170.186C161.093 166.73 158.501 164.282 154.949 164.282ZM154.949 167.066C156.773 167.066 158.069 168.29 158.069 170.186C158.069 172.082 156.773 173.306 154.949 173.306C153.125 173.306 151.829 172.082 151.829 170.186C151.829 168.29 153.125 167.066 154.949 167.066Z" fill="black"/>
<path d="M153.664 83.2H116.416L112.48 92.608H132.064C137.152 92.608 139.264 92.416 140.704 91.936L140.896 92.128C139.936 93.28 139.264 95.488 136.48 101.92L116.416 148H126.88L153.76 83.392L153.664 83.2Z" fill="black"/>
</svg>
