<svg width="260" height="260" viewBox="0 0 260 260" fill="none" xmlns="http://www.w3.org/2000/svg">
<path d="M97.3923 35.4384C96.9908 35.4644 96.4722 35.5869 95.7331 35.8715L95.6986 35.7819C96.4739 35.4577 96.8787 35.1732 97.168 34.856C97.8277 34.1648 97.9584 33.3687 97.5616 32.3384C96.8976 30.6139 95.4225 30.2561 93.4739 31.0064L87.6283 33.2573L91.6128 43.6047L97.436 41.3624C99.3397 40.6293 100.514 39.0712 99.7812 37.1674C99.281 35.8684 98.3916 35.3622 97.3923 35.4384ZM91.0681 34.376L91.0819 34.3449C91.2645 34.3518 91.4523 34.3052 91.7435 34.1931L93.4008 33.5549C94.1399 33.2703 94.6638 33.4286 94.8967 34.0333C95.1468 34.6828 94.8592 35.205 94.1649 35.4724L92.4852 36.1192C92.194 36.2313 92.0234 36.3227 91.8925 36.4503L91.8615 36.4365C91.8821 36.2228 91.8355 36.035 91.7493 35.811L91.4129 34.9376C91.3267 34.7136 91.218 34.4982 91.0681 34.376ZM95.9413 39.4176L94.0375 40.1506C93.7464 40.2627 93.5758 40.3541 93.4449 40.4817L93.4139 40.4679C93.4345 40.2543 93.3879 40.0665 93.3016 39.8425L92.8618 38.7002C92.7842 38.4987 92.6928 38.3281 92.5342 38.1834L92.548 38.1524C92.7306 38.1592 92.9184 38.1126 93.2096 38.0005L95.1133 37.2675C95.8524 36.9829 96.4435 37.1153 96.7281 37.8544C97.0213 38.6159 96.7028 39.1243 95.9413 39.4176Z" fill="black"/>
<path d="M115.337 25.1851C113.391 25.4773 112.239 26.6939 111.702 28.4491L111.603 28.4397C111.66 27.8487 111.614 27.0548 111.475 26.1291L108.627 26.5568L110.986 42.2687L113.858 41.8374L113.138 37.0432C113.013 36.2125 112.835 35.5111 112.589 34.8442L112.681 34.8063C113.68 36.4521 115.287 37.133 117.115 36.8586C120.176 36.3988 121.936 33.732 121.412 30.2431C120.888 26.7542 118.375 24.7289 115.337 25.1851ZM114.906 27.968C116.733 27.6936 118.078 28.7294 118.374 30.6993C118.67 32.6692 117.712 34.0507 115.861 34.3287C113.986 34.6102 112.512 33.5211 112.227 31.6224C111.942 29.7236 113.031 28.2496 114.906 27.968Z" fill="black"/>
<path d="M129.534 24.1476C126.126 24.1817 123.821 26.5089 123.857 30.1329C123.893 33.7329 126.316 35.9889 129.964 35.9525C131.788 35.9342 133.27 35.3193 134.578 34.1061L133.213 32.0076C132.285 32.8809 131.21 33.3477 129.938 33.3605C128.186 33.378 127.073 32.501 126.792 30.8477L126.694 30.5846L126.741 30.5121C127.055 30.701 127.415 30.7454 128.135 30.7382L134.999 30.6696L134.992 29.9736C134.955 26.2776 132.894 24.114 129.534 24.1476ZM129.462 26.5485C130.926 26.5339 131.894 27.3643 132.005 28.8753L131.958 28.9238C131.764 28.7577 131.404 28.7373 130.588 28.7455L127.972 28.7717C127.468 28.7767 126.988 28.8535 126.774 28.9997L126.725 28.9521C126.902 27.4622 127.95 26.5637 129.462 26.5485Z" fill="black"/>
<path d="M148.773 21.3466L146.847 21.0834C146.647 22.1945 146.032 22.7889 144.939 22.6394C143.869 22.4932 143.413 21.7527 143.518 20.6286L141.615 20.3687C141.304 22.6515 142.637 24.2386 144.682 24.518C146.751 24.8006 148.461 23.6294 148.773 21.3466ZM137.454 35.9326L138.263 36.0431L144.316 31.8075C145.039 31.3008 145.478 30.9247 145.778 30.5054L145.869 30.5422C145.586 31.3755 145.521 31.8511 145.352 33.0876L144.845 36.7971L147.77 37.1967L149.291 26.0681L148.458 25.9544L142.405 30.19C141.682 30.6967 141.243 31.0728 140.943 31.4921L140.852 31.4553C141.135 30.622 141.2 30.1464 141.369 28.9099L141.876 25.2004L138.975 24.804L137.454 35.9326Z" fill="black"/>
<path d="M152.463 26.9838L151.773 29.532L154.9 30.379C155.178 30.4543 155.364 30.5045 155.574 30.462L155.591 30.4915C155.448 30.6517 155.369 30.8539 155.312 31.0624L153.248 38.6838L156.097 39.4555L158.161 31.8341C158.218 31.6256 158.251 31.4109 158.209 31.2004L158.238 31.1835C158.398 31.3264 158.584 31.3766 158.862 31.4519L161.989 32.2989L162.679 29.7507L152.463 26.9838Z" fill="black"/>
<path d="M161.571 41.1602L162.322 41.4786L169.274 38.9774C170.105 38.6779 170.627 38.43 171.026 38.1039L171.105 38.1634C170.613 38.8933 170.426 39.3353 169.938 40.4843L168.477 43.9314L171.195 45.0835L175.579 34.7423L174.805 34.4145L167.854 36.9157C167.023 37.2152 166.501 37.4631 166.102 37.7892L166.023 37.7297C166.515 36.9998 166.702 36.5578 167.189 35.4088L168.651 31.9617L165.955 30.819L161.571 41.1602Z" fill="black"/>
<path d="M186.49 40.9159L184.777 43.75C184.665 43.9349 184.574 44.1321 184.556 44.3461L184.524 44.3542C184.409 44.1727 184.245 44.0734 183.998 43.9244L180.815 41.9996C180.568 41.8506 180.404 41.7512 180.19 41.734L180.182 41.7011C180.363 41.5864 180.496 41.414 180.608 41.2292L182.321 38.395L179.816 36.88L174.078 46.3683L176.584 47.8833L178.683 44.4125C178.794 44.2277 178.886 44.0304 178.903 43.8164L178.936 43.8083C179.05 43.9898 179.215 44.0891 179.461 44.2382L182.645 46.163C182.891 46.312 183.055 46.4113 183.269 46.4285L183.277 46.4615C183.096 46.5761 182.964 46.7485 182.852 46.9334L180.753 50.4042L183.279 51.9316L189.016 42.4433L186.49 40.9159Z" fill="black"/>
<path d="M185.761 53.9882L188.058 55.8033L192.953 49.6075C193.087 49.438 193.202 49.2537 193.246 49.0435L193.28 49.0396C193.371 49.2339 193.521 49.3529 193.747 49.5315L196.93 52.0458L198.567 49.9743L192.635 45.2878L185.761 53.9882Z" fill="black"/>
<path d="M204.405 55.0726C201.978 52.6799 198.703 52.6862 196.158 55.2668C193.631 57.8304 193.739 61.139 196.337 63.7002C197.636 64.9807 199.117 65.5982 200.899 65.6704L201.425 63.2228C200.152 63.1809 199.063 62.7474 198.157 61.8544C196.909 60.6243 196.746 59.2169 197.721 57.8523L197.838 57.5969L197.923 57.5793C198.01 57.9351 198.233 58.222 198.746 58.7275L203.633 63.5466L204.122 63.051C206.717 60.419 206.798 57.4316 204.405 55.0726ZM202.652 56.7142C203.694 57.7421 203.788 59.0142 202.795 60.1583L202.727 60.1588C202.708 59.9044 202.469 59.6345 201.888 59.0616L200.025 57.225C199.666 56.8712 199.273 56.5855 199.018 56.5363L199.018 56.4685C200.199 55.5437 201.575 55.6527 202.652 56.7142Z" fill="black"/>
<path d="M221.196 77.3134L216.083 69.3592L210.309 73.0709C209.259 73.7458 208.708 73.6434 208.228 72.8965L207.748 72.1495L205.548 73.5641L206.17 74.5331C207.546 76.6731 209.402 77.1634 211.724 75.6709L214.994 73.5684C215.196 73.4387 215.332 73.2945 215.454 73.1301L215.487 73.1373C215.505 73.2973 215.588 73.4718 215.77 73.7545L217.068 75.7733C217.25 76.0559 217.361 76.1843 217.512 76.2866L217.505 76.3198C217.304 76.3631 217.117 76.4265 216.915 76.5563L210.273 80.8261L211.869 83.3093L221.196 77.3134Z" fill="black"/>
<path d="M227.828 90.8826L226.482 87.9881L220.246 88.2932C219.472 88.3355 218.92 88.4594 218.323 88.7108L218.282 88.6237C219.154 88.1654 219.628 87.7602 220.238 87.0797L224.095 82.8518L222.729 79.9137L215.365 88.4975L209.231 88.623L210.495 91.3435L227.828 90.8826Z" fill="black"/>
<path d="M230.785 99.9843L226.959 101.176C226.611 100.706 225.969 99.775 225.684 98.8585C225.313 97.6669 225.601 96.8984 226.953 96.4773L229.451 95.6994L228.573 92.8809L225.869 93.7231C222.89 94.6509 222.088 96.434 222.888 99.0004C223.244 100.146 223.811 101.076 224.657 102.019L224.626 102.079C224.338 102.043 224.072 102.075 223.453 102.268L220.199 103.282L221.077 106.1L231.663 102.803L230.785 99.9843Z" fill="black"/>
<path d="M234.916 121.61L227.088 122.646C226.874 122.675 226.663 122.727 226.485 122.847L226.458 122.826C226.528 122.623 226.503 122.433 226.465 122.148L226.075 119.197C226.037 118.912 226.012 118.722 225.891 118.544L225.912 118.517C226.115 118.587 226.332 118.582 226.546 118.554L234.374 117.518L233.987 114.591L226.159 115.627C225.945 115.656 225.734 115.708 225.556 115.828L225.529 115.808C225.599 115.605 225.574 115.414 225.536 115.129L225.145 112.179C225.108 111.893 225.083 111.703 224.962 111.525L224.983 111.498C225.186 111.568 225.403 111.563 225.617 111.535L233.445 110.499L233.061 107.596L222.069 109.051L224.311 125.992L235.303 124.537L234.916 121.61Z" fill="black"/>
<path d="M224.008 129.111L223.97 129.926L228.727 135.579C229.296 136.254 229.709 136.658 230.153 136.919L230.125 137.014C229.27 136.805 228.79 136.783 227.544 136.725L223.804 136.55L223.666 139.498L234.885 140.024L234.925 139.184L230.168 133.532C229.599 132.856 229.185 132.453 228.741 132.192L228.769 132.097C229.625 132.305 230.104 132.328 231.351 132.386L235.091 132.561L235.228 129.636L224.008 129.111Z" fill="black"/>
<path d="M223.508 141.404L222.854 144.822L225.115 147.185C225.685 147.783 226.026 148.043 226.621 148.255L226.603 148.349C225.972 148.326 225.563 148.419 224.808 148.788L221.831 150.173L221.177 153.591L226.854 150.865C227.201 150.712 227.497 150.573 227.664 150.336L227.735 150.349C227.803 150.631 228.007 150.841 228.25 151.108L232.149 155.25L232.807 151.808L231.018 150.049C230.386 149.391 230.002 149.097 229.45 148.918L229.468 148.824C230.052 148.838 230.489 148.726 231.342 148.352L233.659 147.353L234.318 143.912L229.165 146.322C228.865 146.485 228.598 146.605 228.407 146.837L228.336 146.824C228.268 146.542 228.045 146.304 227.802 146.037L223.508 141.404Z" fill="black"/>
<path d="M215.77 167.435C214.3 170.8 215.561 173.969 218.816 175.391C221.961 176.764 224.827 175.659 226.114 172.711C226.995 170.634 226.638 168.514 224.7 167.013L224.729 166.948C226.941 167.94 228.043 169.075 228.135 170.844C228.21 172.291 227.592 174.666 227.466 175.973C227.326 177.614 227.997 178.536 229.493 179.189L230.684 176.461C230.297 176.266 230.105 175.868 230.202 175.046C230.342 173.824 230.767 171.653 230.587 170.265C230.282 167.906 228.605 166.047 225.174 164.549C220.577 162.542 217.287 163.96 215.77 167.435ZM218.35 168.483C219.07 166.833 220.752 166.101 222.489 166.86C224.183 167.599 224.811 169.34 224.109 170.946C223.389 172.595 221.717 173.305 220.002 172.556C218.286 171.807 217.649 170.088 218.35 168.483Z" fill="black"/>
<path d="M218.638 187.142C219.679 185.472 219.502 183.806 218.516 182.258L218.587 182.189C218.999 182.616 219.633 183.096 220.428 183.592L221.951 181.148L208.469 172.741L206.933 175.206L211.047 177.771C211.76 178.215 212.409 178.535 213.075 178.781L213.045 178.875C211.144 178.567 209.583 179.347 208.605 180.915C206.967 183.542 207.853 186.612 210.847 188.479C213.841 190.345 217.012 189.749 218.638 187.142ZM216.801 185.007C215.824 186.575 214.163 186.926 212.472 185.872C210.782 184.818 210.353 183.193 211.343 181.604C212.347 179.995 214.132 179.581 215.761 180.597C217.39 181.613 217.804 183.398 216.801 185.007Z" fill="black"/>
<path d="M209.935 198.641C212.15 196.051 211.913 192.784 209.158 190.429C206.422 188.089 203.13 188.431 200.758 191.203C199.573 192.589 199.062 194.11 199.116 195.893L201.594 196.245C201.546 194.972 201.902 193.855 202.728 192.888C203.867 191.556 205.26 191.295 206.69 192.17L206.953 192.269L206.976 192.352C206.628 192.465 206.357 192.707 205.889 193.254L201.428 198.471L201.956 198.923C204.765 201.326 207.751 201.195 209.935 198.641ZM208.174 197.008C207.222 198.121 205.96 198.304 204.748 197.395L204.743 197.327C204.995 197.29 205.248 197.032 205.778 196.412L207.478 194.424C207.806 194.041 208.063 193.629 208.094 193.371L208.162 193.366C209.168 194.479 209.156 195.859 208.174 197.008Z" fill="black"/>
<path d="M197.514 210.463L195.325 207.977C195.182 207.815 195.021 207.669 194.822 207.588L194.825 207.554C195.032 207.499 195.176 207.372 195.392 207.182L198.184 204.724C198.4 204.533 198.544 204.406 198.625 204.207L198.659 204.209C198.714 204.417 198.838 204.595 198.981 204.757L201.17 207.243L203.367 205.307L196.039 196.986L193.842 198.922L196.523 201.965C196.665 202.127 196.826 202.274 197.025 202.354L197.023 202.388C196.815 202.443 196.671 202.57 196.455 202.76L193.663 205.219C193.447 205.409 193.303 205.536 193.223 205.735L193.189 205.733C193.134 205.525 193.009 205.347 192.866 205.185L190.186 202.142L187.97 204.093L195.299 212.414L197.514 210.463Z" fill="black"/>
<path d="M184.601 202.567L182.362 204.011L183.819 206.27C183.949 206.472 184.074 206.62 184.258 206.729L184.251 206.762C184.071 206.793 183.897 206.877 183.634 207.046L178.088 210.623C177.785 210.818 177.677 210.917 177.575 211.068L177.542 211.061C177.499 210.861 177.435 210.673 177.305 210.472L175.848 208.213L173.609 209.657L176.744 214.517L177.51 214.023C177.793 213.841 177.921 213.73 178.023 213.578L178.056 213.585C178.1 213.786 178.164 213.973 178.294 214.175L182.69 220.992L189.77 216.426L188.56 214.55C187.363 212.695 186.684 210.934 186.53 208.834C186.488 208.547 186.437 208.38 186.326 208.252L186.333 208.219C186.513 208.188 186.627 208.143 186.869 207.987L187.736 207.428L184.601 202.567ZM183.94 209.734L183.986 209.761C183.938 211.191 184.643 213.392 185.593 214.865L185.879 215.308C186.009 215.51 186.133 215.658 186.318 215.768L186.311 215.801C186.131 215.831 185.976 215.902 185.694 216.084L184.161 217.073C183.879 217.255 183.751 217.366 183.648 217.518L183.615 217.511C183.592 217.297 183.508 217.123 183.378 216.921L180.633 212.666C180.503 212.464 180.379 212.316 180.194 212.206L180.201 212.173C180.382 212.143 180.536 212.072 180.818 211.89L183.4 210.225C183.682 210.042 183.83 209.918 183.94 209.734Z" fill="black"/>
<path d="M173.416 213.305L172.673 213.642L169.802 220.449C169.459 221.263 169.288 221.815 169.257 222.329L169.16 222.347C168.956 221.49 168.758 221.053 168.243 219.916L166.698 216.506L164.009 217.724L168.644 227.955L169.409 227.609L172.28 220.802C172.623 219.988 172.794 219.436 172.825 218.921L172.922 218.904C173.126 219.76 173.324 220.197 173.839 221.334L175.384 224.744L178.051 223.536L173.416 213.305Z" fill="black"/>
<path d="M156.677 231.655L155.75 228.475C155.689 228.268 155.606 228.067 155.46 227.91L155.476 227.88C155.688 227.918 155.872 227.865 156.148 227.784L159.72 226.742C159.996 226.662 160.18 226.608 160.338 226.462L160.368 226.478C160.329 226.69 160.367 226.904 160.427 227.111L161.354 230.291L164.165 229.471L161.061 218.826L158.25 219.646L159.385 223.54C159.446 223.747 159.529 223.948 159.675 224.105L159.659 224.135C159.448 224.097 159.264 224.15 158.987 224.231L155.416 225.273C155.139 225.353 154.955 225.407 154.798 225.553L154.768 225.537C154.806 225.325 154.769 225.111 154.708 224.904L153.573 221.01L150.739 221.837L153.843 232.481L156.677 231.655Z" fill="black"/>
<path d="M147.504 222.39L144.609 222.829L145.792 230.636C145.825 230.849 145.881 231.059 146.004 231.235L145.984 231.262C145.78 231.196 145.59 231.225 145.305 231.268L141.295 231.875L141.691 234.485L149.165 233.353L147.504 222.39Z" fill="black"/>
<path d="M133.569 235.357C137.119 235.228 139.62 232.687 139.494 229.233C139.368 225.78 136.688 223.428 133.138 223.557C129.589 223.687 127.088 226.228 127.214 229.681C127.34 233.135 130.019 235.487 133.569 235.357ZM133.467 232.575C131.645 232.642 130.305 231.466 130.236 229.571C130.167 227.676 131.417 226.406 133.24 226.339C135.063 226.273 136.402 227.449 136.472 229.344C136.541 231.238 135.29 232.509 133.467 232.575Z" fill="black"/>
<path d="M115.715 228.601C116.085 228.76 116.602 228.887 117.39 228.969L117.38 229.065C116.542 229.001 116.052 229.071 115.651 229.222C114.749 229.538 114.271 230.188 114.156 231.286C113.964 233.124 115.116 234.113 117.193 234.33L123.423 234.98L124.574 223.952L118.368 223.304C116.339 223.092 114.585 223.947 114.373 225.976C114.228 227.36 114.79 228.215 115.715 228.601ZM120.867 232.421L120.84 232.442C120.681 232.353 120.492 232.309 120.182 232.277L118.415 232.092C117.628 232.01 117.233 231.631 117.3 230.987C117.373 230.294 117.866 229.96 118.606 230.037L120.396 230.224C120.706 230.256 120.9 230.252 121.074 230.198L121.096 230.225C120.98 230.406 120.937 230.594 120.912 230.833L120.815 231.764C120.79 232.002 120.789 232.244 120.867 232.421ZM118.816 225.715L120.845 225.927C121.155 225.96 121.348 225.956 121.523 225.902L121.544 225.928C121.429 226.109 121.385 226.297 121.36 226.536L121.233 227.754C121.211 227.968 121.215 228.162 121.29 228.363L121.264 228.384C121.104 228.295 120.916 228.251 120.605 228.219L118.577 228.007C117.789 227.925 117.322 227.538 117.405 226.751C117.489 225.939 118.004 225.631 118.816 225.715Z" fill="black"/>
<path d="M104.99 228.609L106.914 229.125C107.215 229.206 107.407 229.232 107.588 229.206L107.605 229.235C107.462 229.396 107.389 229.575 107.327 229.807L106.569 232.635L109.397 233.393L112.268 222.683L106.983 221.267C104.618 220.633 102.641 221.519 102.007 223.884C101.367 226.271 102.602 227.969 104.99 228.609ZM99.267 230.678L102.138 219.968L99.3096 219.21L96.4389 229.92L99.267 230.678ZM106.737 223.76L108.244 224.164C108.545 224.245 108.737 224.271 108.918 224.245L108.935 224.274C108.792 224.435 108.719 224.614 108.657 224.846L108.253 226.353C108.191 226.585 108.164 226.776 108.208 226.987L108.178 227.004C108.034 226.891 107.855 226.818 107.554 226.737L106.047 226.333C105.143 226.091 104.757 225.49 104.981 224.656C105.205 223.821 105.833 223.518 106.737 223.76Z" fill="black"/>
<path d="M97.4957 218.481L94.3129 217.074L91.5016 218.744C90.7909 219.164 90.46 219.438 90.1199 219.97L90.0321 219.931C90.1966 219.322 90.1982 218.902 90.009 218.084L89.3301 214.871L86.1473 213.464L87.524 219.61C87.5954 219.982 87.6642 220.301 87.8572 220.518L87.828 220.584C87.5381 220.587 87.2874 220.738 86.9734 220.914L82.059 223.78L85.2638 225.197L87.3812 223.85C88.1649 223.383 88.5372 223.075 88.8359 222.577L88.9237 222.616C88.7786 223.182 88.7893 223.633 88.9616 224.549L89.4125 227.031L92.6172 228.448L91.4293 222.884C91.3385 222.555 91.2819 222.268 91.0987 222.03L91.1278 221.964C91.4178 221.961 91.7001 221.797 92.0141 221.621L97.4957 218.481Z" fill="black"/>
<path d="M71.2663 203.612L69.889 202.609L68.4477 204.588L68.8357 204.871C69.3594 205.252 69.444 205.462 69.313 206.05L68.8991 207.352C68.5808 208.278 68.7727 208.952 70.0389 209.904L69.9824 209.981C68.7461 209.111 68.0209 209.087 67.2741 209.582L66.4462 210.108C65.9219 210.379 65.5902 210.345 65.0082 209.921L64.7173 209.709L63.276 211.688L64.5175 212.592C65.4875 213.299 66.2426 213.404 67.0229 212.903L68.6699 211.906C69.5261 211.342 69.9337 211.312 70.5545 211.764L71.2141 212.244C71.4663 212.428 71.7132 212.578 71.8437 212.644L71.849 212.677C71.6019 212.853 71.4411 213.033 71.1868 213.383L69.2933 215.982L71.66 217.706L78.1883 208.743L75.8216 207.02L73.6737 209.968C73.3911 210.356 73.2692 210.564 73.1773 210.854L73.1437 210.859C73.0415 210.755 72.8228 210.566 72.5706 210.382L71.911 209.902C71.2709 209.435 71.2395 208.908 71.6196 207.938L72.2614 206.119C72.5745 205.159 72.3333 204.39 71.2663 203.612Z" fill="black"/>
<path d="M56.5865 205.901C59.1472 208.363 62.7123 208.394 65.1074 205.903C67.5025 203.411 67.3304 199.85 64.7697 197.389C62.209 194.927 58.6439 194.895 56.2488 197.387C53.8537 199.878 54.0258 203.44 56.5865 205.901ZM58.5159 203.894C57.2009 202.63 57.1149 200.85 58.4288 199.483C59.7428 198.116 61.5254 198.132 62.8403 199.396C64.1553 200.66 64.2413 202.44 62.9274 203.807C61.6134 205.174 59.8308 205.158 58.5159 203.894Z" fill="black"/>
<path d="M55.0104 186.697L54.5352 186.063L49.7976 187.066C48.9288 187.268 48.5112 187.311 48.0264 187.585L47.9688 187.508C48.4776 187.066 48.66 186.75 49.116 186.078L51.564 182.382L49.6632 179.847L43.3368 190.172L43.7976 190.786L49.5528 189.62C50.1144 189.529 50.4888 189.428 50.9304 189.217L50.988 189.294C50.6472 189.639 50.4456 189.97 50.2008 190.484L47.4696 195.682L47.9304 196.297L59.6136 193.114L57.7128 190.58L53.4936 191.914C52.7064 192.145 52.3512 192.231 51.7848 192.596L51.7272 192.519C52.1256 192.13 52.2984 191.761 52.7208 190.964L55.0104 186.697Z" fill="black"/>
<path d="M34.0515 174.249L38.9716 183.566L48.7764 178.388L47.3978 175.777L40.4156 179.465C40.2246 179.565 40.0448 179.688 39.9199 179.862L39.8875 179.852C39.8827 179.637 39.793 179.468 39.6585 179.213L38.0335 176.136C37.899 175.881 37.8093 175.711 37.6348 175.586L37.6448 175.554C37.8594 175.549 38.0616 175.469 38.2526 175.369L45.2348 171.681L43.8563 169.071L34.0515 174.249Z" fill="black"/>
<path d="M30.4425 165.584C30.8711 166.781 31.5532 168.118 32.3692 169.33L34.5026 167.954C33.6623 166.675 33.234 165.834 32.9429 165.02C32.4334 163.597 32.7298 162.573 33.7902 162.117C34.3777 161.907 34.9039 161.668 35.2621 161.386L35.3396 161.461C34.4234 162.604 34.2273 164.051 34.7853 165.61C35.602 167.892 37.5367 168.882 39.7512 168.09C41.9431 167.305 42.8781 165.288 42.0776 163.051C41.5035 161.447 40.3211 160.494 38.5548 160.259L38.5676 160.153C39.2441 160.191 39.7962 160.095 40.5419 159.828L39.5392 157.026L32.9635 159.38C30.0033 160.439 29.2619 162.285 30.4425 165.584ZM36.3033 163.869C35.899 162.739 36.2713 161.713 37.2204 161.374C38.1694 161.034 39.1304 161.583 39.5428 162.735C39.939 163.842 39.5731 164.814 38.6015 165.162C37.6524 165.502 36.7077 164.999 36.3033 163.869Z" fill="black"/>
<path d="M26.264 148.699L29.5081 148.032C29.7197 147.988 29.9264 147.921 30.0951 147.788L30.1235 147.807C30.0681 148.015 30.1068 148.203 30.1648 148.485L30.9141 152.128C30.9721 152.411 31.0107 152.599 31.1435 152.767L31.1248 152.796C30.9174 152.74 30.701 152.76 30.4894 152.804L27.2453 153.471L27.835 156.339L38.6958 154.106L38.106 151.238L34.1332 152.055C33.9216 152.098 33.7148 152.165 33.5461 152.298L33.5178 152.279C33.5731 152.072 33.5345 151.884 33.4765 151.602L32.7272 147.958C32.6692 147.676 32.6305 147.488 32.4978 147.319L32.5165 147.291C32.7239 147.346 32.9403 147.326 33.1518 147.282L37.1247 146.465L36.5301 143.574L25.6694 145.807L26.264 148.699Z" fill="black"/>
<path d="M36.2638 140.406L36.2156 139.591L30.8886 134.472C30.2514 133.861 29.7975 133.503 29.3282 133.29L29.3465 133.193C30.2189 133.31 30.698 133.282 31.9439 133.208L35.6814 132.987L35.5073 130.04L24.2949 130.703L24.3444 131.541L29.6714 136.66C30.3086 137.272 30.7625 137.629 31.2318 137.842L31.2135 137.939C30.3411 137.823 29.862 137.851 28.6162 137.924L24.8787 138.145L25.0513 141.068L36.2638 140.406Z" fill="black"/>
<path d="M20.5533 116.322L20.3876 118.259C21.5074 118.403 22.1319 118.986 22.0378 120.086C21.9457 121.162 21.2291 121.655 20.1012 121.607L19.9375 123.52C22.2331 123.716 23.751 122.304 23.9269 120.248C24.1049 118.167 22.8489 116.518 20.5533 116.322ZM35.6915 126.891L35.761 126.078L31.2256 120.246C30.6831 119.549 30.2854 119.13 29.8515 118.852L29.8836 118.758C30.7301 118.999 31.2084 119.04 32.4518 119.146L36.1822 119.466L36.4338 116.524L25.2427 115.567L25.1711 116.404L29.7065 122.236C30.2491 122.933 30.6468 123.352 31.0806 123.63L31.0485 123.724C30.202 123.482 29.7238 123.442 28.4803 123.335L24.7499 123.016L24.5003 125.933L35.6915 126.891Z" fill="black"/>
<path d="M24.3133 95.3921L22.5519 100.901L38.5539 106.018L39.4894 103.091L33.523 101.184C33.2258 101.089 32.9826 101.061 32.8537 101.071L32.8226 101.01C32.9578 100.902 33.0319 100.75 33.1269 100.453L33.8358 98.2351C34.8591 95.0347 33.7429 92.5361 30.7483 91.5787C27.7536 90.6212 25.3804 92.0546 24.3133 95.3921ZM25.9874 98.825C26.0998 98.7098 26.1739 98.5571 26.2689 98.2599L26.9413 96.1568C27.4017 94.7166 28.5107 94.164 29.7908 94.5733C31.071 94.9826 31.6308 96.0687 31.1704 97.5089L30.498 99.612C30.403 99.9092 30.3747 100.077 30.4222 100.243L30.3619 100.274C30.2622 100.192 30.0482 100.073 29.7511 99.9779L26.6878 98.9986C26.3906 98.9035 26.1474 98.8762 26.0185 98.8854L25.9874 98.825Z" fill="black"/>
<path d="M34.5995 84.2485C33.0682 87.4535 34.1597 90.8476 37.278 92.3375C40.3964 93.8273 43.7226 92.5439 45.2539 89.3389C46.7852 86.1339 45.6938 82.7398 42.5754 81.2499C39.457 79.7601 36.1308 81.0435 34.5995 84.2485ZM37.1115 85.4487C37.8978 83.8029 39.561 83.1611 41.2717 83.9785C42.9825 84.7959 43.5282 86.4929 42.7419 88.1387C41.9556 89.7845 40.2924 90.4263 38.5817 89.6089C36.8709 88.7915 36.3252 87.0945 37.1115 85.4487Z" fill="black"/>
<path d="M52.1329 77.2444C52.9243 76.0414 53.3094 74.8009 53.3474 73.3895L50.6232 73.1199C50.6291 74.0718 50.3547 74.9255 49.8535 75.6874C48.8378 77.2312 47.0428 77.6017 45.4989 76.586C43.9551 75.5703 43.5846 73.7753 44.6003 72.2315C45.1016 71.4695 45.7769 70.8796 46.6533 70.5082L45.3273 68.1133C44.0463 68.7069 43.0596 69.5516 42.2682 70.7546C40.2764 73.7822 40.9096 77.1865 43.8369 79.1123C46.7642 81.0381 50.1411 80.272 52.1329 77.2444Z" fill="black"/>
<path d="M58.6372 68.6391C59.5576 67.5316 60.0785 66.3418 60.2734 64.9434L57.5962 64.3721C57.496 65.3187 57.1283 66.1366 56.5453 66.8379C55.3641 68.2591 53.539 68.4274 52.1178 67.2462C50.6966 66.0649 50.5284 64.2398 51.7096 62.8186C52.2925 62.1173 53.0294 61.6062 53.9417 61.3347L52.8906 58.807C51.5514 59.2543 50.4768 59.9839 49.5564 61.0914C47.2399 63.8784 47.4901 67.332 50.1849 69.5717C52.8796 71.8115 56.3207 71.4261 58.6372 68.6391Z" fill="black"/>
<path d="M62.5297 63.9347L63.1312 63.3833L63.7402 56.0206C63.8124 55.1405 63.8036 54.5625 63.6724 54.0642L63.7594 54.017C64.2193 54.7675 64.5437 55.1213 65.387 56.0413L67.9169 58.8012L70.093 56.8065L62.5033 48.5267L61.8841 49.0943L61.2751 56.457C61.2029 57.3372 61.2117 57.9151 61.3429 58.4134L61.2559 58.4606C60.796 57.7102 60.4716 57.3563 59.6283 56.4364L57.0984 53.6764L54.94 55.6549L62.5297 63.9347Z" fill="black"/>
<path d="M72.6763 54.9489L73.3509 54.4898L75.0125 47.2912C75.2106 46.4306 75.285 45.8574 75.2268 45.3454L75.3197 45.3112C75.6669 46.12 75.937 46.5168 76.6392 47.5485L78.7458 50.6437L81.1862 48.9827L74.8664 39.6973L74.172 40.17L72.5103 47.3685C72.3122 48.2291 72.2379 48.8023 72.296 49.3143L72.2032 49.3485C71.8559 48.5397 71.5858 48.1429 70.8836 47.1112L68.777 44.0161L66.3565 45.6635L72.6763 54.9489Z" fill="black"/>
<path d="M105.97 175.898H106.762L108.802 171.506C109.162 170.69 109.378 170.33 109.45 169.778H109.546C109.594 170.45 109.738 170.786 110.002 171.554L111.49 175.73H114.658L110.194 164.474H109.426L106.906 169.778C106.642 170.282 106.498 170.642 106.402 171.122H106.306C106.234 170.642 106.09 170.282 105.826 169.778L103.306 164.474H102.538L98.074 175.73H101.242L102.706 171.554C102.994 170.786 103.138 170.45 103.186 169.778H103.282C103.354 170.33 103.546 170.69 103.93 171.506L105.97 175.898ZM120.557 164.282C117.149 164.282 114.821 166.586 114.821 170.21C114.821 173.81 117.221 176.09 120.869 176.09C122.693 176.09 124.181 175.49 125.501 174.29L124.157 172.178C123.221 173.042 122.141 173.498 120.869 173.498C119.117 173.498 118.013 172.61 117.749 170.954L117.653 170.69L117.701 170.618C118.013 170.81 118.373 170.858 119.093 170.858H125.957V170.162C125.957 166.466 123.917 164.282 120.557 164.282ZM120.461 166.682C121.925 166.682 122.885 167.522 122.981 169.034L122.933 169.082C122.741 168.914 122.381 168.89 121.565 168.89H118.949C118.445 168.89 117.965 168.962 117.749 169.106L117.701 169.058C117.893 167.57 118.949 166.682 120.461 166.682ZM133.363 176.09C134.803 176.09 136.051 175.73 137.251 174.986L135.979 172.562C135.187 173.09 134.323 173.33 133.411 173.33C131.563 173.33 130.267 172.034 130.267 170.186C130.267 168.338 131.563 167.042 133.411 167.042C134.323 167.042 135.187 167.282 135.979 167.81L137.251 165.386C136.051 164.642 134.803 164.282 133.363 164.282C129.739 164.282 127.243 166.682 127.243 170.186C127.243 173.69 129.739 176.09 133.363 176.09ZM137.823 164.642V167.282H141.063C141.351 167.282 141.543 167.282 141.735 167.186L141.759 167.21C141.663 167.402 141.639 167.618 141.639 167.834V175.73H144.591V167.834C144.591 167.618 144.567 167.402 144.471 167.21L144.495 167.186C144.687 167.282 144.879 167.282 145.167 167.282H148.407V164.642H137.823ZM154.949 164.282C151.397 164.282 148.805 166.73 148.805 170.186C148.805 173.642 151.397 176.09 154.949 176.09C158.501 176.09 161.093 173.642 161.093 170.186C161.093 166.73 158.501 164.282 154.949 164.282ZM154.949 167.066C156.773 167.066 158.069 168.29 158.069 170.186C158.069 172.082 156.773 173.306 154.949 173.306C153.125 173.306 151.829 172.082 151.829 170.186C151.829 168.29 153.125 167.066 154.949 167.066Z" fill="black"/>
<path d="M153.664 83.2H116.416L112.48 92.608H132.064C137.152 92.608 139.264 92.416 140.704 91.936L140.896 92.128C139.936 93.28 139.264 95.488 136.48 101.92L116.416 148H126.88L153.76 83.392L153.664 83.2Z" fill="black"/>
</svg>
