<?xml version="1.0" encoding="utf-8"?>
<!-- Generator: Adobe Illustrator 24.0.1, SVG Export Plug-In . SVG Version: 6.00 Build 0)  -->
<svg version="1.1" xmlns="http://www.w3.org/2000/svg" xmlns:xlink="http://www.w3.org/1999/xlink" x="0px" y="0px"
	 viewBox="0 0 270 271" style="enable-background:new 0 0 270 271;" xml:space="preserve">
<style type="text/css">
	.st0{fill:none;stroke:#fff;stroke-width:10;}
	.st1{fill:#E42A45;}
	.st2{fill:#fff;}
	.st3{fill:none;stroke:#110A09;stroke-width:10;stroke-linejoin:bevel;}
</style>
<g id="Layer_1">
	<g>
		<path class="st0" d="M48.5,155.8c10.2,36.5,42.2,63.9,81.1,67.3"/>
		<path class="st0" d="M184.1,50.4c-13.6-7.9-29.4-12.4-46.3-12.4c-38.4,0-71.3,23.3-85.4,56.6"/>
		<path class="st0" d="M188.4,208.4c25.3-16.5,42.1-45.1,42.1-77.7c0-13.1-2.7-25.6-7.6-36.9"/>
		<path class="st1" d="M52.1,128.1c5.3-5.3,5.2-13.9-0.2-19.4c-5.4-5.4-14.1-5.5-19.4-0.2c-5.3,5.3-5.2,13.9,0.2,19.4
			C38.1,133.3,46.8,133.4,52.1,128.1z"/>
		<path class="st1" d="M165.1,234c5.3-5.3,5.2-13.9-0.2-19.4c-5.4-5.4-14.1-5.5-19.4-0.2c-5.3,5.3-5.2,13.9,0.2,19.4
			C151.2,239.2,159.9,239.3,165.1,234z"/>
		<path class="st1" d="M222.5,80c5.3-5.3,5.2-13.9-0.2-19.4c-5.4-5.4-14.1-5.5-19.4-0.2c-5.3,5.3-5.2,13.9,0.2,19.4
			C208.6,85.1,217.3,85.3,222.5,80z"/>
		<path class="st2" d="M241.4,101.6l-18.5-7.7l-7.6,18.7l-4.6-11.2l7.6-18.7l18.5,7.7L241.4,101.6z"/>
		<path class="st2" d="M45.7,75.8l6.7,18.9l19-6.9l-5.2,11l-19,6.9l-6.7-18.9L45.7,75.8z"/>
		<path class="st2" d="M113.8,235.6l15.8-12.5l-12.7-15.7l12.1,1.4l12.7,15.7l-15.7,12.5L113.8,235.6z"/>
	</g>
</g>
<g id="Layer_2">
</g>
<g id="Layer_3">
</g>
</svg>
