<?xml version="1.0" encoding="UTF-8" standalone="no"?>
<!-- Created with Inkscape (http://www.inkscape.org/) -->

<svg
   xmlns:svg="http://www.w3.org/2000/svg"
   xmlns="http://www.w3.org/2000/svg"
   version="1.0"
   width="745.60706"
   height="513.2569"
   id="svg6221">
  <defs
     id="defs3" />
  <path
     d="m 405.8243,48.494855 c -9.71472,-2.624519 -19.68464,3.088798 -22.30916,12.803515 l -85.35676,315.62604 c -2.62453,9.71473 3.08879,19.49065 12.8035,22.11516 l 315.62603,85.35678 c 9.71464,2.62451 19.68462,-3.0888 22.30914,-12.80352 l 85.3567,-315.62604 c 1.23722,-4.57954 0.461,-9.10928 -1.55194,-12.99751 l 0,-0.194 -0.19399,-0.38798 0,-0.19399 c -0.0451,-0.0784 -0.14774,-0.11627 -0.19399,-0.194 L 717.76438,111.93045 651.80695,114.84034 405.8243,48.494855 z"
     id="rect6080"
     style="fill:#000000;fill-opacity:0.2;fill-rule:evenodd;stroke:none" />
  <rect
     width="363.28452"
     height="363.28452"
     rx="2.9260478"
     ry="2.9260478"
     x="363.42282"
     y="-78.837021"
     transform="matrix(0.965391,0.260807,-0.260807,0.965391,0,0)"
     id="rect911"
     style="fill:#ffffff;fill-rule:evenodd;stroke:#ffffff;stroke-width:7.75970697;stroke-miterlimit:4;stroke-opacity:1" />
  <rect
     width="288.49521"
     height="288.49521"
     rx="2.3236644"
     ry="2.3236644"
     x="398.72931"
     y="-39.355053"
     transform="matrix(0.965391,0.260807,-0.260807,0.965391,0,0)"
     id="rect912"
     style="fill:#f3e533;fill-opacity:1;fill-rule:evenodd;stroke-width:0.7941308pt" />
  <path
     d="m 552.48969,32.227283 -66.35244,21.339192 0.58197,0.193993 -251.41446,0 c -10.06292,0 -18.04132,7.978343 -18.04132,18.041317 l 0,327.071605 c 0,10.06304 7.97834,18.04132 18.04132,18.04132 l 327.0716,0 c 10.06304,0 18.04132,-7.97834 18.04132,-18.04132 l 0,-327.071605 c 0,-5.188823 -2.15962,-9.693549 -5.62579,-12.997509 l -22.3022,-26.576993 z"
     id="rect6079"
     style="fill:#000000;fill-opacity:0.2;fill-rule:evenodd;stroke:none" />
  <rect
     width="363.28418"
     height="363.28418"
     rx="2.9260466"
     ry="2.9260466"
     x="192.47523"
     y="30.531385"
     id="rect913"
     style="fill:#ffffff;fill-rule:evenodd;stroke:#ffffff;stroke-width:7.75970602;stroke-miterlimit:4;stroke-opacity:1" />
  <rect
     width="288.49512"
     height="288.49512"
     rx="2.3236635"
     ry="2.3236635"
     x="227.78207"
     y="70.013809"
     id="rect914"
     style="fill:#ff7f00;fill-rule:evenodd;stroke-width:0.7941308pt" />
  <path
     d="m 348.20848,28.541423 -57.03385,38.02256 13.96748,1.551942 -249.474556,89.042615 c -9.479318,3.37716 -14.434728,13.60583 -11.05758,23.08513 l 94.280426,264.79998 -6.59575,-0.19399 -4.26783,40.54445 35.50064,13.1915 0.388,0 c 4.13635,1.85929 8.97108,2.41781 13.57948,0.77598 L 485.55528,389.56176 C 495.03452,386.1846 499.796,375.762 496.41886,366.28264 L 386.81301,58.416291 c -1.55516,-4.365114 -4.78917,-7.440813 -8.53567,-9.505639 L 348.20848,28.541423 z"
     id="rect6078"
     style="fill:#000000;fill-opacity:0.2;fill-rule:evenodd;stroke:none" />
  <rect
     width="363.28326"
     height="363.28326"
     rx="2.9260383"
     ry="2.9260383"
     x="-41.716114"
     y="142.20343"
     transform="matrix(0.942003,-0.335604,0.335604,0.942003,0,0)"
     id="rect915"
     style="fill:#ffffff;fill-rule:evenodd;stroke:#ffffff;stroke-width:7.75969505;stroke-miterlimit:4;stroke-opacity:1" />
  <rect
     width="288.49469"
     height="288.49469"
     rx="2.3236592"
     ry="2.3236592"
     x="-6.4090877"
     y="181.68738"
     transform="matrix(0.942003,-0.335604,0.335604,0.942003,0,0)"
     id="rect916"
     style="fill:#bf0000;fill-rule:evenodd;stroke-width:0.7941308pt" />
</svg>
