<?xml version="1.0" encoding="utf-8"?>
<!-- Generator: Adobe Illustrator 24.2.1, SVG Export Plug-In . SVG Version: 6.00 Build 0)  -->
<svg version="1.1" id="Layer_1" xmlns="http://www.w3.org/2000/svg" xmlns:xlink="http://www.w3.org/1999/xlink" x="0px" y="0px"
	 viewBox="0 0 934.93 736.24" style="enable-background:new 0 0 934.93 736.24;" xml:space="preserve">
<style type="text/css">
	.st0{fill:#E62A46;}
	.st1{fill:#010202;}
</style>
<g>
	<g>
		<g>
			<circle class="st0" cx="94.77" cy="105.55" r="63.54"/>
		</g>
	</g>
	<path class="st1" d="M846.32,159.73C798.77,93.54,728.29,49.83,647.87,36.65c-65.33-10.71-130.91,4.67-184.67,43.29
		c-53.76,38.62-89.26,95.87-99.97,161.19c-8.73,53.24,3.81,106.7,35.29,150.52c31.48,43.82,78.14,72.76,131.38,81.48
		c89.96,14.74,175.15-46.45,189.89-136.42c5.88-35.85-2.56-71.84-23.76-101.34c-21.2-29.5-52.61-48.99-88.46-54.86
		c-61.23-10.03-119.22,31.62-129.26,92.86c-4.05,24.72,1.77,49.53,16.38,69.87c14.61,20.34,36.27,33.77,60.99,37.82
		c20.76,3.4,41.6-1.48,58.68-13.76c15.85-11.38,26.7-27.86,30.91-46.76c0.57-2.55,0.91-5.15,1.1-7.75l0.12-2.75h-37.24
		c-1.76,10.75-7.54,20.18-16.3,26.63c-9.21,6.78-25.97,9.26-37,6.26c-12.41-3.37-23.21-10.83-30.84-21.4
		c-9.13-12.65-12.31-35.49-8.05-50.51c10.27-36.24,46.43-59.87,84.47-53.64c26,4.26,48.78,18.39,64.15,39.79
		c15.37,21.4,21.49,47.5,17.23,73.5c-11.41,69.63-77.34,116.99-146.97,105.58c-43.39-7.11-81.42-30.69-107.07-66.4
		c-25.66-35.71-35.87-79.28-28.76-122.67c9.09-55.47,39.24-104.08,84.89-136.88c45.65-32.8,101.35-45.85,156.82-36.76
		c70.57,11.57,132.42,49.92,174.14,108c41.72,58.08,58.33,128.93,46.77,199.5c-30.26,184.65-205.11,310.25-389.74,279.99
		c-106-17.37-200.97-73.36-267.4-157.67c-59.3-75.25-91.44-167.2-92.14-261.91l44.96,44.4l-0.36-53.8l-63.77-62.94l-62.94,63.77
		l0.35,53.8l44.38-44.99c0.74,103.01,35.69,203,100.15,284.81c72.23,91.65,175.47,152.53,290.71,171.42
		c11.16,1.83,22.28,3.14,33.35,3.97c192.28,14.25,367.55-120.97,399.31-314.79C912.8,306.66,893.87,225.92,846.32,159.73z"/>
</g>
</svg>
