<svg width="356" height="662" viewBox="0 0 356 662" fill="none" xmlns="http://www.w3.org/2000/svg">
<path d="M178 512C219.421 512 253 545.579 253 587C253 628.421 219.421 662 178 662C136.579 662 103 628.421 103 587C103 545.579 136.579 512 178 512Z" fill="#E42A45"/>
<path d="M25 177.855C25 93.4356 93.5004 25 178 25C262.5 25 331 93.4356 331 177.855C331 262.275 272.821 278.046 178 330.71V455" stroke="black" stroke-width="50" stroke-linejoin="bevel"/>
<path d="M254.21 373.15L179.11 447.986L104.274 372.886L104.222 436.52L178.977 511.562L254.1 436.866L254.21 373.15Z" fill="black"/>
</svg>
